<svg fill="none" height="20" viewBox="0 0 20 20" width="20" xmlns="http://www.w3.org/2000/svg"><path clip-rule="evenodd" d="m6.06498 4.42894c1.60135-1.60134 4.19762-1.60134 5.79902 0l5.799 5.79896c1.6013 1.6014 1.6013 4.1977 0 5.799-1.6014 1.6014-4.1977 1.6014-5.799 0l-5.79902-5.799c-1.60134-1.60131-1.60134-4.19761 0-5.79896z" fill="#4287f5" fill-rule="evenodd" opacity=".8"/><g fill="#000"><path clip-rule="evenodd" d="m15.8492 10.1924-6.36391-6.36397c-1.5621-1.5621-4.09476-1.5621-5.65686 0-1.56209 1.56209-1.56209 4.09475 0 5.65685l6.36397 6.36392c1.5621 1.5621 4.0948 1.5621 5.6568 0 1.5621-1.5621 1.5621-4.0947 0-5.6568zm-11.31366-5.65687c1.17157-1.17157 3.07107-1.17157 4.24264 0l6.36392 6.36397c1.1716 1.1716 1.1716 3.0711 0 4.2426-1.1715 1.1716-3.071 1.1716-4.2426 0l-6.36396-6.36393c-1.17157-1.17157-1.17157-3.07106 0-4.24264z" fill-rule="evenodd"/><path d="m13.0369 7.58066-.2425.97015c-1.2015-.30038-2.2234-.1544-3.1014.43095-.86935.57957-1.45372 1.68704-1.73081 3.35524l-.98648-.1639c.31851-1.9175 1.03194-3.26962 2.16259-4.02339 1.122-.74798 2.4335-.93534 3.8986-.56905z"/></g></svg>